<svg width="15" height="17" viewBox="0 0 15 17" fill="none" xmlns="http://www.w3.org/2000/svg">
<path fill-rule="evenodd" clip-rule="evenodd" d="M9.03444 0.843889C8.48708 0.642707 7.8968 0.533321 7.28325 0.533321C4.69564 0.533321 2.52183 2.47897 2.23608 5.05076L2.02598 6.94162L2.02077 6.9882C1.9199 7.86718 1.6338 8.71477 1.18133 9.47506L1.15725 9.51528L0.674954 10.3191L0.663332 10.3385L0.663327 10.3385C0.454381 10.6867 0.281294 10.9752 0.168792 11.2141C0.0552429 11.4552 -0.0322762 11.7159 0.011337 11.9923C0.0584887 12.2912 0.21229 12.5628 0.444281 12.757C0.658862 12.9366 0.927514 12.9957 1.19267 13.0224C1.45539 13.0489 1.7918 13.0488 2.19791 13.0488H2.2205H12.346H12.3686C12.7747 13.0488 13.1111 13.0489 13.3738 13.0224C13.639 12.9957 13.9076 12.9366 14.1222 12.757C14.3542 12.5628 14.508 12.2912 14.5552 11.9923C14.5988 11.7159 14.5113 11.4552 14.3977 11.2141C14.2852 10.9752 14.1121 10.6867 13.9032 10.3385L13.9032 10.3384L13.8916 10.3191L13.4093 9.51528L13.3852 9.47506C13.0405 8.89585 12.7923 8.26596 12.6491 7.61014C12.5305 7.62026 12.4106 7.62542 12.2894 7.62542C12.1221 7.62542 11.957 7.61557 11.7948 7.5964C11.9489 8.40864 12.244 9.18905 12.6682 9.90177L12.6938 9.94456L13.1761 10.7484C13.3996 11.1209 13.5504 11.3733 13.6429 11.5696C13.7363 11.768 13.7346 11.8393 13.731 11.8623C13.7153 11.9619 13.664 12.0525 13.5867 12.1172C13.5688 12.1321 13.5086 12.1703 13.2903 12.1922C13.0744 12.214 12.7804 12.2145 12.346 12.2145H2.2205C1.78606 12.2145 1.49207 12.214 1.2762 12.1922C1.05791 12.1703 0.997675 12.1321 0.979823 12.1172C0.902493 12.0525 0.851226 11.9619 0.835509 11.8623C0.83188 11.8393 0.830158 11.768 0.923634 11.5696C1.01608 11.3733 1.1669 11.1209 1.39042 10.7484L1.87271 9.94456L1.89834 9.90177C2.41113 9.0401 2.73538 8.0795 2.84969 7.08333L2.85525 7.03376L3.06534 5.1429C3.30415 2.99366 5.12079 1.36769 7.28325 1.36769C7.72988 1.36769 8.16175 1.43705 8.56802 1.56606C8.69875 1.30882 8.85537 1.06696 9.03444 0.843889ZM11.11 2.27302C10.8984 2.4845 10.7432 2.75256 10.6692 3.05257C11.0714 3.58399 11.3522 4.21497 11.4682 4.90661C11.7107 5.04393 11.9909 5.12232 12.2894 5.12232C12.3058 5.12232 12.3221 5.12208 12.3383 5.12162L12.3304 5.05076C12.2122 3.98644 11.7705 3.02935 11.11 2.27302Z" fill="#33363F"/>
<path d="M4.86558 13.1864C5.0082 13.9847 5.32245 14.6902 5.7596 15.1934C6.19676 15.6965 6.73238 15.9692 7.2834 15.9692C7.83441 15.9692 8.37004 15.6965 8.80719 15.1934C9.24434 14.6902 9.55859 13.9847 9.70121 13.1864" stroke="#33363F" stroke-width="0.834368" stroke-linecap="round"/>
<circle cx="12.2896" cy="3.45365" r="2.08592" fill="#886D99" stroke="#996CB7" stroke-width="0.834368"/>
</svg>
