<svg width="301" height="137" viewBox="0 0 301 137" fill="none" xmlns="http://www.w3.org/2000/svg">
<path d="M44.9898 110V39.123L47.0712 39.8899L9.16789 86.2283L7.96287 83.7087H63.8319V89.1861H8.7297L5.55284 82.7228L45.9757 33.317H50.4671V110H44.9898ZM80.2768 110V33.317H107.883C112.411 33.317 116.427 34.3395 119.933 36.3844C123.511 38.4292 126.323 41.2044 128.368 44.7099C130.413 48.1424 131.435 52.0496 131.435 56.4315C131.435 60.8134 130.449 64.6475 128.477 67.9339C126.579 71.2203 123.913 73.8129 120.481 75.7118C117.121 77.5375 113.287 78.4504 108.978 78.4504H85.7541V110H80.2768ZM128.039 110L108.978 77.0263L113.579 74.1781L134.393 110H128.039ZM85.7541 72.9731H109.635C112.776 72.9731 115.551 72.2793 117.961 70.8917C120.371 69.5041 122.233 67.5688 123.548 65.0857C124.935 62.6026 125.629 59.7909 125.629 56.6506C125.629 53.2181 124.862 50.1508 123.329 47.4486C121.795 44.7465 119.641 42.6285 116.866 41.0949C114.163 39.5612 111.06 38.7944 107.554 38.7944H85.7541V72.9731ZM148.958 110V33.317H154.435V104.523H192.01V110H148.958Z" fill="#4C4C4C"/>
<mask id="path-2-inside-1_24_120" fill="white">
<path d="M300.496 49.097C300.096 34.4063 289.977 20.3205 275.89 14.8433C260.872 9.00449 244.08 12.9027 233.109 24.7743C228.083 30.2134 224.577 37.3543 223.237 44.8829C221.838 52.7406 222.952 60.4226 226.372 66.513C233.482 79.1698 241.034 91.3552 249.03 104.256C252.413 109.715 255.912 115.359 259.403 121.088L261.64 124.758L263.902 121.104C267.026 116.056 270.08 111.113 273.087 106.245C274.187 104.466 275.276 102.702 276.359 100.95L272.919 96.4755C271.491 98.7863 270.052 101.115 268.596 103.472C266.318 107.16 264.012 110.891 261.671 114.678C258.919 110.193 256.183 105.777 253.517 101.477C245.552 88.6257 238.029 76.4875 230.975 63.9298C228.151 58.9015 227.249 52.4658 228.434 45.8074C229.6 39.2597 232.637 33.0619 236.986 28.3549C243.55 21.2525 252.519 17.4493 261.722 17.4493C265.824 17.4493 269.974 18.205 273.976 19.7613C286.14 24.4903 294.876 36.6131 295.22 49.2408C295.42 56.5783 293.719 63.0207 290.018 68.9362C285.951 75.4403 281.926 81.9209 277.842 88.5158L275.202 87.5694C269.583 84.5729 267.225 81.1328 266.252 79.0508C262.437 72.63 263.041 65.5591 263.041 65.5591C263.07 65.5471 263.098 65.5355 263.127 65.5234C263.139 65.5458 263.153 65.5678 263.166 65.5898C263.227 65.8161 263.29 66.045 263.357 66.2779C263.457 66.7551 263.554 67.2327 263.679 67.7032C263.828 68.2633 264.016 68.8159 264.224 69.3574C264.441 69.9241 264.683 70.4837 264.952 71.0281C265.136 71.402 265.397 71.7374 265.6 72.1031C265.891 72.6283 266.257 73.0914 266.693 73.5014C266.923 73.7182 267.137 73.9607 267.397 74.1357C267.742 74.3687 268.123 74.5486 268.489 74.7492C268.593 74.8056 268.698 74.8653 268.808 74.903C269.115 75.0067 269.425 75.1016 269.736 75.1945C269.797 75.2127 269.865 75.2136 269.929 75.2123C270.614 75.1986 271.3 75.2078 271.982 75.1551C272.263 75.1335 272.537 74.9831 272.81 74.884C273.013 74.8106 273.216 74.7368 273.409 74.6415C273.628 74.5328 273.838 74.4027 274.049 74.277C274.476 74.0229 274.853 73.6958 275.135 73.2983C275.451 72.8547 275.832 72.4505 276.004 71.9045C276.169 71.3792 276.422 70.8813 276.593 70.3573C276.7 70.031 276.74 69.6803 276.788 69.3375C276.812 69.1596 276.864 69.0784 277.06 69.0386C277.46 68.9573 277.851 68.828 278.245 68.7148C278.488 68.6447 278.733 68.5763 278.972 68.4926C279.144 68.4329 279.319 68.3674 279.474 68.2729C279.833 68.0536 280.176 67.8085 280.534 67.5867C281.045 67.27 281.434 66.8268 281.798 66.3629C281.892 66.2427 281.957 66.1005 282.035 65.967C283.012 64.7876 283.04 63.3399 282.842 62.2608C282.812 61.9772 282.722 61.6277 282.57 61.2123C282.569 61.2024 282.568 61.192 282.567 61.1821C282.563 61.1278 282.532 61.0751 282.509 61.0237C282.35 60.6726 282.212 60.3086 282.023 59.9744C280.049 56.0717 274.208 54.9403 269.955 54.6501C270.006 54.6402 270.061 54.6406 270.112 54.6282C270.497 54.5341 270.891 54.5697 271.251 54.4582C271.631 54.3409 272.025 54.357 272.387 54.2488C272.67 54.1643 272.954 54.1427 273.233 54.0793C273.604 53.9951 273.963 53.8625 274.33 53.7621C274.639 53.678 274.956 53.6228 275.262 53.5325C275.572 53.4408 275.874 53.3206 276.18 53.2145C276.39 53.1415 276.606 53.0831 276.811 52.9981C277.173 52.8476 277.531 52.6859 277.887 52.5213C278.175 52.3882 278.46 52.2485 278.743 52.103C279.004 51.9683 279.276 51.8468 279.513 51.6769C280.204 51.1798 280.82 50.5952 281.372 49.9473C281.701 49.5605 281.901 49.1011 282.11 48.6385C282.408 47.9777 282.5 47.2837 282.491 46.5876C282.483 46.0255 282.415 45.4666 282.266 44.926C282.181 44.4924 282.048 44.0683 281.843 43.6641C281.522 43.0335 281.113 42.4581 280.554 42.0153C280.223 41.7537 279.844 41.5552 279.504 41.3043C279.007 40.937 278.425 40.7608 277.856 40.5668C277.466 40.4338 277.052 40.3624 276.643 40.2978C276.329 40.248 276.227 40.2144 276.167 40.0673C276.147 39.9723 276.122 39.8782 276.094 39.7845C276.092 39.7762 276.091 39.7729 276.09 39.7642C276.03 39.4334 275.906 39.1138 275.804 38.7912C275.738 38.5827 275.661 38.3771 275.586 38.171C275.405 37.6756 275.164 37.2146 274.835 36.7988C274.665 36.5845 274.535 36.3328 274.343 36.1426C273.977 35.7794 273.597 35.4233 273.187 35.1124C272.954 34.9353 272.645 34.8595 272.375 34.7285C272.148 34.619 271.913 34.5548 271.674 34.5063C268.069 33.5171 266.429 35.6824 266.429 35.6824C266.119 35.9867 265.769 36.2578 265.503 36.5957C265.187 36.9957 264.93 37.4443 264.671 37.885C264.451 38.2589 264.248 38.6449 264.068 39.0396C263.92 39.3613 263.811 39.7016 263.697 40.0378C263.549 40.4748 263.407 40.9142 263.274 41.3562C263.192 41.6281 263.126 41.9055 263.062 42.1824C262.969 42.5837 262.873 42.9846 262.8 43.3896C262.711 43.8834 262.644 44.3809 262.57 44.8775C262.491 45.4077 262.415 45.9384 262.338 46.469C262.328 46.5416 262.311 46.6137 262.306 46.6867C262.249 47.6858 262.196 48.6857 262.133 49.6844C262.113 49.9978 262.063 50.3096 262.027 50.6222C262.009 50.6259 261.99 50.6296 261.971 50.6334C261.964 50.5944 261.954 50.5554 261.95 50.5165C261.912 50.0783 261.911 49.6359 261.861 49.1994C261.77 48.3997 261.66 47.6016 261.547 46.8044C261.465 46.2253 261.389 45.6432 261.269 45.0711C261.123 44.373 260.936 43.6831 260.763 42.9912C260.758 42.9726 260.753 42.9543 260.748 42.9361C260.719 42.8217 260.689 42.7073 260.661 42.5928C260.582 42.2778 260.507 41.961 260.406 41.6534C259.837 39.5449 259.041 38.0608 258.162 37.0156C258.128 36.9696 258.099 36.919 258.063 36.8747C257.906 36.6802 257.718 36.5115 257.526 36.3461C257.403 36.2325 257.281 36.126 257.157 36.0261C256.955 35.8453 256.759 35.6492 256.528 35.5178C256.233 35.3511 255.991 35.0958 255.625 35.0369C255.372 34.9963 255.135 34.8578 254.891 34.7633C254.876 34.7575 254.86 34.7488 254.845 34.7484C254.191 34.7347 253.552 34.5029 252.89 34.6211C252.661 34.6617 252.431 34.6945 252.203 34.7363C251.963 34.779 251.825 34.8201 251.825 34.8201C251.453 34.9391 251.105 35.1331 250.747 35.2948C250.378 35.4614 250.055 35.6849 249.764 35.9436C249.441 36.2309 249.156 36.5613 248.888 36.9054C248.478 37.4327 248.161 38.0272 247.932 38.6644C247.704 39.2995 247.531 39.9437 247.439 40.6141C247.425 40.7144 247.193 40.8147 247.045 40.8608C246.495 41.0303 245.924 41.141 245.388 41.3441C244.953 41.5091 244.552 41.7695 244.143 41.9979C243.544 42.3325 242.998 42.7475 242.601 43.3051C242.297 43.7337 242.07 44.2204 241.833 44.693C241.833 44.693 241.821 44.7225 241.801 44.7743C241.556 45.3049 241.481 45.8737 241.458 46.4446C241.442 46.6709 241.439 46.9126 241.45 47.1655C241.457 47.4138 241.483 47.6618 241.533 47.9068C241.568 48.1062 241.619 48.3101 241.679 48.5162C241.68 48.5174 241.68 48.5191 241.68 48.5203C241.734 48.7027 241.799 48.8864 241.877 49.0717C241.937 49.2454 241.983 49.4257 242.049 49.5978C242.102 49.7371 242.171 49.8785 242.263 49.9937C242.595 50.4066 242.925 50.8233 243.287 51.21C243.551 51.4936 243.85 51.7494 244.159 51.9845C244.391 52.1611 244.662 52.2875 244.919 52.4314C245.188 52.5827 245.458 52.7361 245.734 52.8733C246.012 53.0109 246.298 53.1303 246.581 53.2564C246.784 53.3467 246.987 53.4392 247.193 53.5221C247.369 53.5926 247.546 53.6614 247.728 53.7128C247.994 53.7878 248.266 53.8401 248.533 53.9139C248.829 53.9955 249.121 54.0901 249.414 54.18C249.437 54.1866 249.457 54.2057 249.48 54.209C249.876 54.2708 250.273 54.3197 250.666 54.3943C251.076 54.4727 251.481 54.5763 251.888 54.6659C251.959 54.6812 252.034 54.68 252.106 54.6866C252.724 54.7422 253.356 54.7343 253.954 54.8744C254.402 54.9797 254.839 54.949 255.28 54.9868C255.392 54.9963 255.504 55.0075 255.616 55.0183C253.551 55.2529 251.611 55.575 251.611 55.575L251.627 55.5995C251.278 55.6633 250.994 55.7272 250.82 55.7881C250.82 55.7881 246.913 56.6347 244.4 58.3825C244.375 58.397 244.35 58.4103 244.325 58.4252C244.301 58.4401 244.281 58.4629 244.257 58.4799C244.045 58.6341 243.842 58.7933 243.656 58.9612L243.627 58.9509C243.627 58.9509 241.15 60.9897 241.841 64.0936C241.852 64.1649 241.855 64.2362 241.871 64.3079C241.932 64.5861 241.983 64.8688 242.06 65.1412C242.1 65.346 242.145 65.5487 242.217 65.7419C242.338 66.0665 242.538 66.3617 242.706 66.6685C243.009 67.2232 243.457 67.6593 243.941 68.0403C244.334 68.3491 244.786 68.5871 245.23 68.823C245.572 69.005 245.934 69.1567 246.301 69.2811C246.593 69.3798 246.905 69.4179 247.21 69.4809C247.475 69.536 247.744 69.5808 248.005 69.65C248.046 69.6608 248.08 69.718 248.104 69.7748C248.126 69.8602 248.15 69.9552 248.182 70.0654C248.196 70.1231 248.214 70.179 248.228 70.2367C248.324 70.6347 248.416 71.0343 248.544 71.4219C248.657 71.7673 248.88 72.0749 249.02 72.4132C249.183 72.8066 249.471 73.1071 249.697 73.4504C249.963 73.8554 250.299 74.1701 250.659 74.4557C250.983 74.7136 251.371 74.9055 251.754 75.0734C252.165 75.2542 252.602 75.3748 253.03 75.5166C253.098 75.539 253.175 75.5411 253.247 75.5398C253.932 75.5282 254.626 75.5767 255.297 75.4776C255.72 75.4155 256.172 75.3209 256.557 75.054C256.893 74.8193 257.288 74.6655 257.617 74.4222C257.906 74.2074 258.157 73.9317 258.395 73.6573C258.726 73.2759 259.056 72.8882 259.336 72.4695C259.568 72.123 259.73 71.7287 259.917 71.3527C260.064 71.0588 260.215 70.7661 260.339 70.4622C260.437 70.2209 260.493 69.9631 260.574 69.7147C260.62 69.5729 260.686 69.437 260.732 69.2952C260.819 69.0274 260.904 68.7583 260.982 68.4876C261.06 68.2165 261.138 67.9441 261.201 67.6684C261.275 67.3459 261.339 67.0204 261.397 66.6946C261.496 66.1349 261.587 65.574 261.683 65.0139C261.695 64.9414 261.716 64.8697 261.733 64.7975C261.762 64.7971 261.792 64.7971 261.821 64.7967C261.838 64.9327 261.869 65.0687 261.871 65.2046C261.882 66.1499 261.885 67.0951 261.892 68.0399C261.906 69.8511 262.01 71.657 262.268 73.45C262.377 74.212 262.561 74.964 262.718 75.7189C262.795 76.0929 262.879 76.466 262.979 76.8341C263.062 77.1363 263.168 77.4323 263.272 77.7283C263.412 78.1238 263.55 78.5202 263.706 78.909C263.847 79.2581 264.007 79.5989 264.167 79.9396C264.367 80.365 264.571 80.7883 264.783 81.2078C264.875 81.3902 264.989 81.5618 265.097 81.7364C265.28 82.0345 265.46 82.3346 265.652 82.6273C265.652 82.6273 268.523 87.8969 273.357 90.7707L275.462 92.363L279.836 95.3247C284.779 87.3331 289.606 79.5491 294.494 71.7337C298.763 64.9099 300.726 57.5053 300.496 49.097Z"/>
</mask>
<path d="M300.496 49.097C300.096 34.4063 289.977 20.3205 275.89 14.8433C260.872 9.00449 244.08 12.9027 233.109 24.7743C228.083 30.2134 224.577 37.3543 223.237 44.8829C221.838 52.7406 222.952 60.4226 226.372 66.513C233.482 79.1698 241.034 91.3552 249.03 104.256C252.413 109.715 255.912 115.359 259.403 121.088L261.64 124.758L263.902 121.104C267.026 116.056 270.08 111.113 273.087 106.245C274.187 104.466 275.276 102.702 276.359 100.95L272.919 96.4755C271.491 98.7863 270.052 101.115 268.596 103.472C266.318 107.16 264.012 110.891 261.671 114.678C258.919 110.193 256.183 105.777 253.517 101.477C245.552 88.6257 238.029 76.4875 230.975 63.9298C228.151 58.9015 227.249 52.4658 228.434 45.8074C229.6 39.2597 232.637 33.0619 236.986 28.3549C243.55 21.2525 252.519 17.4493 261.722 17.4493C265.824 17.4493 269.974 18.205 273.976 19.7613C286.14 24.4903 294.876 36.6131 295.22 49.2408C295.42 56.5783 293.719 63.0207 290.018 68.9362C285.951 75.4403 281.926 81.9209 277.842 88.5158L275.202 87.5694C269.583 84.5729 267.225 81.1328 266.252 79.0508C262.437 72.63 263.041 65.5591 263.041 65.5591C263.07 65.5471 263.098 65.5355 263.127 65.5234C263.139 65.5458 263.153 65.5678 263.166 65.5898C263.227 65.8161 263.29 66.045 263.357 66.2779C263.457 66.7551 263.554 67.2327 263.679 67.7032C263.828 68.2633 264.016 68.8159 264.224 69.3574C264.441 69.9241 264.683 70.4837 264.952 71.0281C265.136 71.402 265.397 71.7374 265.6 72.1031C265.891 72.6283 266.257 73.0914 266.693 73.5014C266.923 73.7182 267.137 73.9607 267.397 74.1357C267.742 74.3687 268.123 74.5486 268.489 74.7492C268.593 74.8056 268.698 74.8653 268.808 74.903C269.115 75.0067 269.425 75.1016 269.736 75.1945C269.797 75.2127 269.865 75.2136 269.929 75.2123C270.614 75.1986 271.3 75.2078 271.982 75.1551C272.263 75.1335 272.537 74.9831 272.81 74.884C273.013 74.8106 273.216 74.7368 273.409 74.6415C273.628 74.5328 273.838 74.4027 274.049 74.277C274.476 74.0229 274.853 73.6958 275.135 73.2983C275.451 72.8547 275.832 72.4505 276.004 71.9045C276.169 71.3792 276.422 70.8813 276.593 70.3573C276.7 70.031 276.74 69.6803 276.788 69.3375C276.812 69.1596 276.864 69.0784 277.06 69.0386C277.46 68.9573 277.851 68.828 278.245 68.7148C278.488 68.6447 278.733 68.5763 278.972 68.4926C279.144 68.4329 279.319 68.3674 279.474 68.2729C279.833 68.0536 280.176 67.8085 280.534 67.5867C281.045 67.27 281.434 66.8268 281.798 66.3629C281.892 66.2427 281.957 66.1005 282.035 65.967C283.012 64.7876 283.04 63.3399 282.842 62.2608C282.812 61.9772 282.722 61.6277 282.57 61.2123C282.569 61.2024 282.568 61.192 282.567 61.1821C282.563 61.1278 282.532 61.0751 282.509 61.0237C282.35 60.6726 282.212 60.3086 282.023 59.9744C280.049 56.0717 274.208 54.9403 269.955 54.6501C270.006 54.6402 270.061 54.6406 270.112 54.6282C270.497 54.5341 270.891 54.5697 271.251 54.4582C271.631 54.3409 272.025 54.357 272.387 54.2488C272.67 54.1643 272.954 54.1427 273.233 54.0793C273.604 53.9951 273.963 53.8625 274.33 53.7621C274.639 53.678 274.956 53.6228 275.262 53.5325C275.572 53.4408 275.874 53.3206 276.18 53.2145C276.39 53.1415 276.606 53.0831 276.811 52.9981C277.173 52.8476 277.531 52.6859 277.887 52.5213C278.175 52.3882 278.46 52.2485 278.743 52.103C279.004 51.9683 279.276 51.8468 279.513 51.6769C280.204 51.1798 280.82 50.5952 281.372 49.9473C281.701 49.5605 281.901 49.1011 282.11 48.6385C282.408 47.9777 282.5 47.2837 282.491 46.5876C282.483 46.0255 282.415 45.4666 282.266 44.926C282.181 44.4924 282.048 44.0683 281.843 43.6641C281.522 43.0335 281.113 42.4581 280.554 42.0153C280.223 41.7537 279.844 41.5552 279.504 41.3043C279.007 40.937 278.425 40.7608 277.856 40.5668C277.466 40.4338 277.052 40.3624 276.643 40.2978C276.329 40.248 276.227 40.2144 276.167 40.0673C276.147 39.9723 276.122 39.8782 276.094 39.7845C276.092 39.7762 276.091 39.7729 276.09 39.7642C276.03 39.4334 275.906 39.1138 275.804 38.7912C275.738 38.5827 275.661 38.3771 275.586 38.171C275.405 37.6756 275.164 37.2146 274.835 36.7988C274.665 36.5845 274.535 36.3328 274.343 36.1426C273.977 35.7794 273.597 35.4233 273.187 35.1124C272.954 34.9353 272.645 34.8595 272.375 34.7285C272.148 34.619 271.913 34.5548 271.674 34.5063C268.069 33.5171 266.429 35.6824 266.429 35.6824C266.119 35.9867 265.769 36.2578 265.503 36.5957C265.187 36.9957 264.93 37.4443 264.671 37.885C264.451 38.2589 264.248 38.6449 264.068 39.0396C263.92 39.3613 263.811 39.7016 263.697 40.0378C263.549 40.4748 263.407 40.9142 263.274 41.3562C263.192 41.6281 263.126 41.9055 263.062 42.1824C262.969 42.5837 262.873 42.9846 262.8 43.3896C262.711 43.8834 262.644 44.3809 262.57 44.8775C262.491 45.4077 262.415 45.9384 262.338 46.469C262.328 46.5416 262.311 46.6137 262.306 46.6867C262.249 47.6858 262.196 48.6857 262.133 49.6844C262.113 49.9978 262.063 50.3096 262.027 50.6222C262.009 50.6259 261.99 50.6296 261.971 50.6334C261.964 50.5944 261.954 50.5554 261.95 50.5165C261.912 50.0783 261.911 49.6359 261.861 49.1994C261.77 48.3997 261.66 47.6016 261.547 46.8044C261.465 46.2253 261.389 45.6432 261.269 45.0711C261.123 44.373 260.936 43.6831 260.763 42.9912C260.758 42.9726 260.753 42.9543 260.748 42.9361C260.719 42.8217 260.689 42.7073 260.661 42.5928C260.582 42.2778 260.507 41.961 260.406 41.6534C259.837 39.5449 259.041 38.0608 258.162 37.0156C258.128 36.9696 258.099 36.919 258.063 36.8747C257.906 36.6802 257.718 36.5115 257.526 36.3461C257.403 36.2325 257.281 36.126 257.157 36.0261C256.955 35.8453 256.759 35.6492 256.528 35.5178C256.233 35.3511 255.991 35.0958 255.625 35.0369C255.372 34.9963 255.135 34.8578 254.891 34.7633C254.876 34.7575 254.86 34.7488 254.845 34.7484C254.191 34.7347 253.552 34.5029 252.89 34.6211C252.661 34.6617 252.431 34.6945 252.203 34.7363C251.963 34.779 251.825 34.8201 251.825 34.8201C251.453 34.9391 251.105 35.1331 250.747 35.2948C250.378 35.4614 250.055 35.6849 249.764 35.9436C249.441 36.2309 249.156 36.5613 248.888 36.9054C248.478 37.4327 248.161 38.0272 247.932 38.6644C247.704 39.2995 247.531 39.9437 247.439 40.6141C247.425 40.7144 247.193 40.8147 247.045 40.8608C246.495 41.0303 245.924 41.141 245.388 41.3441C244.953 41.5091 244.552 41.7695 244.143 41.9979C243.544 42.3325 242.998 42.7475 242.601 43.3051C242.297 43.7337 242.07 44.2204 241.833 44.693C241.833 44.693 241.821 44.7225 241.801 44.7743C241.556 45.3049 241.481 45.8737 241.458 46.4446C241.442 46.6709 241.439 46.9126 241.45 47.1655C241.457 47.4138 241.483 47.6618 241.533 47.9068C241.568 48.1062 241.619 48.3101 241.679 48.5162C241.68 48.5174 241.68 48.5191 241.68 48.5203C241.734 48.7027 241.799 48.8864 241.877 49.0717C241.937 49.2454 241.983 49.4257 242.049 49.5978C242.102 49.7371 242.171 49.8785 242.263 49.9937C242.595 50.4066 242.925 50.8233 243.287 51.21C243.551 51.4936 243.85 51.7494 244.159 51.9845C244.391 52.1611 244.662 52.2875 244.919 52.4314C245.188 52.5827 245.458 52.7361 245.734 52.8733C246.012 53.0109 246.298 53.1303 246.581 53.2564C246.784 53.3467 246.987 53.4392 247.193 53.5221C247.369 53.5926 247.546 53.6614 247.728 53.7128C247.994 53.7878 248.266 53.8401 248.533 53.9139C248.829 53.9955 249.121 54.0901 249.414 54.18C249.437 54.1866 249.457 54.2057 249.48 54.209C249.876 54.2708 250.273 54.3197 250.666 54.3943C251.076 54.4727 251.481 54.5763 251.888 54.6659C251.959 54.6812 252.034 54.68 252.106 54.6866C252.724 54.7422 253.356 54.7343 253.954 54.8744C254.402 54.9797 254.839 54.949 255.28 54.9868C255.392 54.9963 255.504 55.0075 255.616 55.0183C253.551 55.2529 251.611 55.575 251.611 55.575L251.627 55.5995C251.278 55.6633 250.994 55.7272 250.82 55.7881C250.82 55.7881 246.913 56.6347 244.4 58.3825C244.375 58.397 244.35 58.4103 244.325 58.4252C244.301 58.4401 244.281 58.4629 244.257 58.4799C244.045 58.6341 243.842 58.7933 243.656 58.9612L243.627 58.9509C243.627 58.9509 241.15 60.9897 241.841 64.0936C241.852 64.1649 241.855 64.2362 241.871 64.3079C241.932 64.5861 241.983 64.8688 242.06 65.1412C242.1 65.346 242.145 65.5487 242.217 65.7419C242.338 66.0665 242.538 66.3617 242.706 66.6685C243.009 67.2232 243.457 67.6593 243.941 68.0403C244.334 68.3491 244.786 68.5871 245.23 68.823C245.572 69.005 245.934 69.1567 246.301 69.2811C246.593 69.3798 246.905 69.4179 247.21 69.4809C247.475 69.536 247.744 69.5808 248.005 69.65C248.046 69.6608 248.08 69.718 248.104 69.7748C248.126 69.8602 248.15 69.9552 248.182 70.0654C248.196 70.1231 248.214 70.179 248.228 70.2367C248.324 70.6347 248.416 71.0343 248.544 71.4219C248.657 71.7673 248.88 72.0749 249.02 72.4132C249.183 72.8066 249.471 73.1071 249.697 73.4504C249.963 73.8554 250.299 74.1701 250.659 74.4557C250.983 74.7136 251.371 74.9055 251.754 75.0734C252.165 75.2542 252.602 75.3748 253.03 75.5166C253.098 75.539 253.175 75.5411 253.247 75.5398C253.932 75.5282 254.626 75.5767 255.297 75.4776C255.72 75.4155 256.172 75.3209 256.557 75.054C256.893 74.8193 257.288 74.6655 257.617 74.4222C257.906 74.2074 258.157 73.9317 258.395 73.6573C258.726 73.2759 259.056 72.8882 259.336 72.4695C259.568 72.123 259.73 71.7287 259.917 71.3527C260.064 71.0588 260.215 70.7661 260.339 70.4622C260.437 70.2209 260.493 69.9631 260.574 69.7147C260.62 69.5729 260.686 69.437 260.732 69.2952C260.819 69.0274 260.904 68.7583 260.982 68.4876C261.06 68.2165 261.138 67.9441 261.201 67.6684C261.275 67.3459 261.339 67.0204 261.397 66.6946C261.496 66.1349 261.587 65.574 261.683 65.0139C261.695 64.9414 261.716 64.8697 261.733 64.7975C261.762 64.7971 261.792 64.7971 261.821 64.7967C261.838 64.9327 261.869 65.0687 261.871 65.2046C261.882 66.1499 261.885 67.0951 261.892 68.0399C261.906 69.8511 262.01 71.657 262.268 73.45C262.377 74.212 262.561 74.964 262.718 75.7189C262.795 76.0929 262.879 76.466 262.979 76.8341C263.062 77.1363 263.168 77.4323 263.272 77.7283C263.412 78.1238 263.55 78.5202 263.706 78.909C263.847 79.2581 264.007 79.5989 264.167 79.9396C264.367 80.365 264.571 80.7883 264.783 81.2078C264.875 81.3902 264.989 81.5618 265.097 81.7364C265.28 82.0345 265.46 82.3346 265.652 82.6273C265.652 82.6273 268.523 87.8969 273.357 90.7707L275.462 92.363L279.836 95.3247C284.779 87.3331 289.606 79.5491 294.494 71.7337C298.763 64.9099 300.726 57.5053 300.496 49.097Z" stroke="#4C4C4C" stroke-width="3.68285" mask="url(#path-2-inside-1_24_120)"/>
</svg>
