<svg width="300" height="137" viewBox="0 0 300 137" fill="none" xmlns="http://www.w3.org/2000/svg">
<path d="M44.4761 110V39.123L46.5575 39.8899L8.65422 86.2283L7.4492 83.7087H63.3182V89.1861H8.21603L5.03917 82.7228L45.462 33.317H49.9535V110H44.4761ZM79.7631 110V33.317H107.369C111.897 33.317 115.914 34.3395 119.419 36.3844C122.998 38.4292 125.809 41.2044 127.854 44.7099C129.899 48.1424 130.922 52.0496 130.922 56.4315C130.922 60.8134 129.936 64.6475 127.964 67.9339C126.065 71.2203 123.399 73.8129 119.967 75.7118C116.607 77.5375 112.773 78.4504 108.464 78.4504H85.2405V110H79.7631ZM127.526 110L108.464 77.0263L113.065 74.1781L133.879 110H127.526ZM85.2405 72.9731H109.122C112.262 72.9731 115.037 72.2793 117.447 70.8917C119.857 69.5041 121.72 67.5688 123.034 65.0857C124.422 62.6026 125.116 59.7909 125.116 56.6506C125.116 53.2181 124.349 50.1508 122.815 47.4486C121.281 44.7465 119.127 42.6285 116.352 41.0949C113.65 39.5612 110.546 38.7944 107.04 38.7944H85.2405V72.9731ZM148.444 110V33.317H153.921V104.523H191.496V110H148.444Z" fill="#4C4C4C"/>
<mask id="path-2-inside-1_27_532" fill="white">
<path d="M299.982 49.0975C299.581 34.4068 289.463 20.321 275.375 14.8438C260.358 9.00498 243.565 12.9032 232.595 24.7747C227.569 30.2139 224.063 37.3548 222.723 44.8834C221.324 52.7411 222.437 60.4231 225.858 66.5135C232.967 79.1703 240.52 91.3557 248.516 104.257C251.899 109.715 255.397 115.359 258.889 121.089L261.125 124.758L263.387 121.104C266.511 116.057 269.565 111.113 272.573 106.245C273.672 104.466 274.761 102.703 275.844 100.95L272.405 96.476C270.976 98.7868 269.538 101.116 268.082 103.473C265.803 107.161 263.498 110.892 261.156 114.679C258.405 110.193 255.668 105.778 253.003 101.478C245.038 88.6262 237.514 76.488 230.461 63.9303C227.637 58.902 226.734 52.4663 227.92 45.8079C229.085 39.2602 232.122 33.0624 236.472 28.3554C243.035 21.253 252.004 17.4497 261.208 17.4497C265.31 17.4497 269.46 18.2055 273.462 19.7618C285.625 24.4908 294.361 36.6136 294.705 49.2413C294.905 56.5788 293.204 63.0212 289.504 68.9366C285.436 75.4408 281.411 81.9214 277.328 88.5163L274.688 87.5698C269.068 84.5733 266.711 81.1333 265.738 79.0513C261.922 72.6305 262.527 65.5596 262.527 65.5596C262.555 65.5476 262.584 65.5359 262.612 65.5239C262.624 65.5463 262.638 65.5683 262.652 65.5903C262.713 65.8166 262.776 66.0454 262.842 66.2784C262.942 66.7556 263.04 67.2332 263.165 67.7037C263.313 68.2638 263.501 68.8164 263.71 69.3579C263.927 69.9246 264.169 70.4842 264.437 71.0286C264.622 71.4025 264.882 71.7379 265.085 72.1035C265.377 72.6288 265.742 73.0919 266.178 73.5019C266.409 73.7187 266.623 73.9612 266.882 74.1362C267.227 74.3692 267.608 74.5491 267.975 74.7497C268.079 74.8061 268.183 74.8658 268.294 74.9035C268.601 75.0072 268.911 75.1021 269.221 75.195C269.282 75.2132 269.35 75.2141 269.415 75.2128C270.099 75.1991 270.786 75.2082 271.467 75.1556C271.749 75.134 272.022 74.9835 272.296 74.8845C272.498 74.8111 272.702 74.7373 272.894 74.6419C273.114 74.5333 273.323 74.4032 273.534 74.2775C273.961 74.0234 274.338 73.6963 274.621 73.2987C274.936 72.8552 275.318 72.4509 275.489 71.905C275.655 71.3797 275.907 70.8818 276.079 70.3578C276.186 70.0315 276.226 69.6808 276.273 69.338C276.298 69.1601 276.35 69.0789 276.545 69.0391C276.946 68.9578 277.336 68.8285 277.73 68.7153C277.974 68.6452 278.218 68.5768 278.457 68.4931C278.629 68.4334 278.804 68.3679 278.959 68.2733C279.318 68.054 279.662 67.809 280.02 67.5872C280.531 67.2705 280.92 66.8273 281.283 66.3634C281.378 66.2432 281.442 66.101 281.52 65.9675C282.498 64.7881 282.525 63.3404 282.328 62.2613C282.297 61.9777 282.207 61.6282 282.055 61.2128C282.054 61.2029 282.053 61.1925 282.053 61.1826C282.048 61.1283 282.017 61.0756 281.994 61.0242C281.835 60.6731 281.698 60.3091 281.509 59.9749C279.535 56.0722 273.694 54.9408 269.441 54.6506C269.492 54.6407 269.546 54.6411 269.597 54.6287C269.982 54.5345 270.377 54.5702 270.737 54.4587C271.116 54.3414 271.51 54.3575 271.872 54.2493C272.156 54.1647 272.439 54.1432 272.719 54.0798C273.089 53.9956 273.449 53.8629 273.816 53.7626C274.124 53.6785 274.441 53.6233 274.748 53.533C275.058 53.4413 275.36 53.3211 275.666 53.215C275.876 53.142 276.092 53.0836 276.297 52.9986C276.659 52.8481 277.016 52.6864 277.372 52.5218C277.661 52.3887 277.946 52.249 278.228 52.1035C278.489 51.9688 278.762 51.8473 278.999 51.6773C279.69 51.1803 280.305 50.5957 280.857 49.9478C281.187 49.561 281.387 49.1016 281.596 48.639C281.893 47.9781 281.986 47.2842 281.976 46.5881C281.969 46.0259 281.901 45.4671 281.752 44.9265C281.667 44.4929 281.533 44.0688 281.328 43.6646C281.007 43.034 280.598 42.4586 280.039 42.0158C279.709 41.7542 279.329 41.5557 278.99 41.3048C278.493 40.9375 277.911 40.7613 277.341 40.5673C276.951 40.4342 276.537 40.3629 276.128 40.2983C275.814 40.2485 275.713 40.2149 275.652 40.0678C275.632 39.9728 275.607 39.8787 275.579 39.785C275.578 39.7767 275.577 39.7734 275.575 39.7647C275.516 39.4339 275.392 39.1143 275.29 38.7917C275.224 38.5832 275.147 38.3776 275.072 38.1715C274.891 37.6761 274.649 37.2151 274.321 36.7993C274.151 36.585 274.021 36.3333 273.828 36.143C273.462 35.7799 273.083 35.4238 272.673 35.1128C272.439 34.9358 272.131 34.86 271.86 34.729C271.634 34.6195 271.399 34.5552 271.16 34.5067C267.554 33.5176 265.915 35.6829 265.915 35.6829C265.605 35.9872 265.255 36.2583 264.988 36.5962C264.673 36.9962 264.415 37.4448 264.156 37.8855C263.936 38.2594 263.734 38.6454 263.553 39.0401C263.406 39.3618 263.296 39.7021 263.182 40.0383C263.034 40.4753 262.893 40.9147 262.759 41.3567C262.678 41.6286 262.611 41.906 262.547 42.1829C262.455 42.5842 262.358 42.9851 262.286 43.3901C262.197 43.8839 262.129 44.3814 262.056 44.878C261.977 45.4082 261.901 45.9389 261.824 46.4695C261.813 46.5421 261.796 46.6142 261.792 46.6872C261.734 47.6863 261.682 48.6862 261.618 49.6849C261.599 49.9983 261.549 50.3101 261.513 50.6227C261.494 50.6264 261.475 50.6301 261.457 50.6339C261.45 50.5949 261.439 50.5559 261.436 50.517C261.398 50.0788 261.397 49.6364 261.347 49.1999C261.256 48.4002 261.145 47.6021 261.032 46.8049C260.951 46.2258 260.874 45.6437 260.755 45.0716C260.609 44.3735 260.422 43.6836 260.248 42.9917C260.244 42.9731 260.238 42.9548 260.233 42.9366C260.204 42.8222 260.175 42.7077 260.146 42.5933C260.067 42.2782 259.992 41.9615 259.891 41.6539C259.322 39.5454 258.526 38.0613 257.647 37.0161C257.613 36.9701 257.584 36.9195 257.548 36.8752C257.392 36.6807 257.204 36.512 257.012 36.3466C256.889 36.233 256.766 36.1265 256.642 36.0266C256.441 35.8458 256.244 35.6497 256.013 35.5183C255.719 35.3516 255.477 35.0963 255.111 35.0374C254.858 34.9968 254.621 34.8583 254.377 34.7638C254.361 34.758 254.345 34.7493 254.33 34.7489C253.676 34.7352 253.037 34.5034 252.375 34.6216C252.147 34.6622 251.916 34.695 251.689 34.7368C251.449 34.7795 251.31 34.8206 251.31 34.8206C250.938 34.9395 250.591 35.1336 250.232 35.2953C249.863 35.4619 249.541 35.6854 249.25 35.9441C248.926 36.2313 248.641 36.5618 248.373 36.9058C247.963 37.4332 247.646 38.0277 247.418 38.6649C247.189 39.3 247.017 39.9442 246.925 40.6146C246.911 40.7149 246.678 40.8152 246.53 40.8612C245.98 41.0308 245.41 41.1415 244.874 41.3446C244.438 41.5096 244.038 41.77 243.628 41.9984C243.03 42.333 242.483 42.7479 242.087 43.3055C241.782 43.7342 241.555 44.2209 241.318 44.6935C241.318 44.6935 241.306 44.723 241.287 44.7748C241.041 45.3054 240.967 45.8742 240.944 46.4451C240.928 46.6714 240.924 46.9131 240.936 47.166C240.943 47.4143 240.968 47.6622 241.019 47.9073C241.054 48.1067 241.104 48.3106 241.165 48.5167C241.165 48.5179 241.165 48.5196 241.166 48.5208C241.22 48.7032 241.284 48.8869 241.362 49.0722C241.422 49.2459 241.468 49.4262 241.534 49.5983C241.588 49.7376 241.656 49.8789 241.749 49.9942C242.081 50.4071 242.411 50.8237 242.772 51.2105C243.037 51.4941 243.336 51.7499 243.644 51.9849C243.877 52.1616 244.148 52.288 244.404 52.4319C244.674 52.5832 244.943 52.7366 245.22 52.8738C245.497 53.0114 245.783 53.1308 246.066 53.2568C246.27 53.3472 246.472 53.4397 246.679 53.5226C246.854 53.5931 247.032 53.6619 247.213 53.7133C247.479 53.7883 247.752 53.8406 248.018 53.9143C248.314 53.996 248.606 54.0905 248.9 54.1805C248.923 54.1871 248.943 54.2062 248.966 54.2095C249.361 54.2713 249.759 54.3202 250.151 54.3948C250.561 54.4732 250.966 54.5768 251.374 54.6664C251.445 54.6817 251.519 54.6805 251.592 54.6871C252.209 54.7427 252.842 54.7348 253.44 54.8749C253.888 54.9802 254.325 54.9495 254.766 54.9873C254.878 54.9968 254.989 55.008 255.101 55.0188C253.037 55.2534 251.097 55.5755 251.097 55.5755L251.113 55.6C250.764 55.6638 250.479 55.7277 250.306 55.7886C250.306 55.7886 246.398 56.6352 243.885 58.383C243.861 58.3975 243.835 58.4108 243.811 58.4257C243.787 58.4406 243.767 58.4634 243.743 58.4804C243.531 58.6346 243.328 58.7938 243.141 58.9617L243.112 58.9514C243.112 58.9514 240.636 60.9902 241.327 64.0941C241.338 64.1654 241.34 64.2367 241.356 64.3084C241.418 64.5866 241.468 64.8693 241.545 65.1417C241.586 65.3465 241.631 65.5492 241.703 65.7424C241.823 66.067 242.023 66.3622 242.191 66.669C242.494 67.2237 242.943 67.6598 243.427 68.0408C243.819 68.3496 244.272 68.5876 244.716 68.8235C245.057 69.0055 245.419 69.1572 245.786 69.2816C246.078 69.3802 246.391 69.4184 246.695 69.4814C246.961 69.5365 247.229 69.5813 247.491 69.6505C247.531 69.6613 247.566 69.7185 247.59 69.7753C247.612 69.8607 247.636 69.9557 247.667 70.0659C247.681 70.1236 247.699 70.1795 247.714 70.2372C247.809 70.6351 247.902 71.0348 248.029 71.4224C248.142 71.7677 248.366 72.0754 248.506 72.4136C248.668 72.8071 248.956 73.1076 249.182 73.4509C249.449 73.8559 249.785 74.1706 250.144 74.4562C250.469 74.7141 250.856 74.906 251.239 75.0739C251.65 75.2547 252.088 75.3753 252.516 75.5171C252.583 75.5395 252.66 75.5416 252.733 75.5403C253.418 75.5287 254.111 75.5772 254.783 75.4781C255.206 75.4159 255.658 75.3214 256.042 75.0544C256.379 74.8198 256.773 74.666 257.102 74.4226C257.392 74.2079 257.643 73.9322 257.881 73.6578C258.211 73.2764 258.542 72.8887 258.822 72.47C259.053 72.1234 259.216 71.7292 259.403 71.3532C259.549 71.0592 259.701 70.7666 259.824 70.4627C259.922 70.2214 259.979 69.9635 260.06 69.7152C260.106 69.5734 260.171 69.4375 260.218 69.2957C260.305 69.0279 260.389 68.7588 260.468 68.4881C260.546 68.217 260.623 67.9446 260.687 67.6689C260.76 67.3464 260.825 67.0209 260.883 66.6951C260.982 66.1354 261.073 65.5745 261.168 65.0144C261.181 64.9419 261.202 64.8702 261.218 64.798C261.248 64.7976 261.277 64.7976 261.306 64.7972C261.324 64.9332 261.355 65.0691 261.356 65.2051C261.367 66.1503 261.371 67.0956 261.378 68.0404C261.391 69.8516 261.496 71.6575 261.753 73.4505C261.862 74.2124 262.046 74.9645 262.203 75.7194C262.281 76.0934 262.365 76.4665 262.465 76.8346C262.547 77.1368 262.654 77.4328 262.758 77.7288C262.897 78.1243 263.035 78.5206 263.192 78.9095C263.333 79.2586 263.493 79.5994 263.653 79.9401C263.853 80.3655 264.056 80.7888 264.268 81.2083C264.36 81.3907 264.475 81.5623 264.582 81.7369C264.765 82.0349 264.945 82.3351 265.137 82.6278C265.137 82.6278 268.009 87.8974 272.843 90.7711L274.947 92.3635L279.322 95.3252C284.264 87.3335 289.092 79.5496 293.98 71.7342C298.248 64.9104 300.211 57.5058 299.982 49.0975Z"/>
</mask>
<path d="M299.982 49.0975C299.581 34.4068 289.463 20.321 275.375 14.8438C260.358 9.00498 243.565 12.9032 232.595 24.7747C227.569 30.2139 224.063 37.3548 222.723 44.8834C221.324 52.7411 222.437 60.4231 225.858 66.5135C232.967 79.1703 240.52 91.3557 248.516 104.257C251.899 109.715 255.397 115.359 258.889 121.089L261.125 124.758L263.387 121.104C266.511 116.057 269.565 111.113 272.573 106.245C273.672 104.466 274.761 102.703 275.844 100.95L272.405 96.476C270.976 98.7868 269.538 101.116 268.082 103.473C265.803 107.161 263.498 110.892 261.156 114.679C258.405 110.193 255.668 105.778 253.003 101.478C245.038 88.6262 237.514 76.488 230.461 63.9303C227.637 58.902 226.734 52.4663 227.92 45.8079C229.085 39.2602 232.122 33.0624 236.472 28.3554C243.035 21.253 252.004 17.4497 261.208 17.4497C265.31 17.4497 269.46 18.2055 273.462 19.7618C285.625 24.4908 294.361 36.6136 294.705 49.2413C294.905 56.5788 293.204 63.0212 289.504 68.9366C285.436 75.4408 281.411 81.9214 277.328 88.5163L274.688 87.5698C269.068 84.5733 266.711 81.1333 265.738 79.0513C261.922 72.6305 262.527 65.5596 262.527 65.5596C262.555 65.5476 262.584 65.5359 262.612 65.5239C262.624 65.5463 262.638 65.5683 262.652 65.5903C262.713 65.8166 262.776 66.0454 262.842 66.2784C262.942 66.7556 263.04 67.2332 263.165 67.7037C263.313 68.2638 263.501 68.8164 263.71 69.3579C263.927 69.9246 264.169 70.4842 264.437 71.0286C264.622 71.4025 264.882 71.7379 265.085 72.1035C265.377 72.6288 265.742 73.0919 266.178 73.5019C266.409 73.7187 266.623 73.9612 266.882 74.1362C267.227 74.3692 267.608 74.5491 267.975 74.7497C268.079 74.8061 268.183 74.8658 268.294 74.9035C268.601 75.0072 268.911 75.1021 269.221 75.195C269.282 75.2132 269.35 75.2141 269.415 75.2128C270.099 75.1991 270.786 75.2082 271.467 75.1556C271.749 75.134 272.022 74.9835 272.296 74.8845C272.498 74.8111 272.702 74.7373 272.894 74.6419C273.114 74.5333 273.323 74.4032 273.534 74.2775C273.961 74.0234 274.338 73.6963 274.621 73.2987C274.936 72.8552 275.318 72.4509 275.489 71.905C275.655 71.3797 275.907 70.8818 276.079 70.3578C276.186 70.0315 276.226 69.6808 276.273 69.338C276.298 69.1601 276.35 69.0789 276.545 69.0391C276.946 68.9578 277.336 68.8285 277.73 68.7153C277.974 68.6452 278.218 68.5768 278.457 68.4931C278.629 68.4334 278.804 68.3679 278.959 68.2733C279.318 68.054 279.662 67.809 280.02 67.5872C280.531 67.2705 280.92 66.8273 281.283 66.3634C281.378 66.2432 281.442 66.101 281.52 65.9675C282.498 64.7881 282.525 63.3404 282.328 62.2613C282.297 61.9777 282.207 61.6282 282.055 61.2128C282.054 61.2029 282.053 61.1925 282.053 61.1826C282.048 61.1283 282.017 61.0756 281.994 61.0242C281.835 60.6731 281.698 60.3091 281.509 59.9749C279.535 56.0722 273.694 54.9408 269.441 54.6506C269.492 54.6407 269.546 54.6411 269.597 54.6287C269.982 54.5345 270.377 54.5702 270.737 54.4587C271.116 54.3414 271.51 54.3575 271.872 54.2493C272.156 54.1647 272.439 54.1432 272.719 54.0798C273.089 53.9956 273.449 53.8629 273.816 53.7626C274.124 53.6785 274.441 53.6233 274.748 53.533C275.058 53.4413 275.36 53.3211 275.666 53.215C275.876 53.142 276.092 53.0836 276.297 52.9986C276.659 52.8481 277.016 52.6864 277.372 52.5218C277.661 52.3887 277.946 52.249 278.228 52.1035C278.489 51.9688 278.762 51.8473 278.999 51.6773C279.69 51.1803 280.305 50.5957 280.857 49.9478C281.187 49.561 281.387 49.1016 281.596 48.639C281.893 47.9781 281.986 47.2842 281.976 46.5881C281.969 46.0259 281.901 45.4671 281.752 44.9265C281.667 44.4929 281.533 44.0688 281.328 43.6646C281.007 43.034 280.598 42.4586 280.039 42.0158C279.709 41.7542 279.329 41.5557 278.99 41.3048C278.493 40.9375 277.911 40.7613 277.341 40.5673C276.951 40.4342 276.537 40.3629 276.128 40.2983C275.814 40.2485 275.713 40.2149 275.652 40.0678C275.632 39.9728 275.607 39.8787 275.579 39.785C275.578 39.7767 275.577 39.7734 275.575 39.7647C275.516 39.4339 275.392 39.1143 275.29 38.7917C275.224 38.5832 275.147 38.3776 275.072 38.1715C274.891 37.6761 274.649 37.2151 274.321 36.7993C274.151 36.585 274.021 36.3333 273.828 36.143C273.462 35.7799 273.083 35.4238 272.673 35.1128C272.439 34.9358 272.131 34.86 271.86 34.729C271.634 34.6195 271.399 34.5552 271.16 34.5067C267.554 33.5176 265.915 35.6829 265.915 35.6829C265.605 35.9872 265.255 36.2583 264.988 36.5962C264.673 36.9962 264.415 37.4448 264.156 37.8855C263.936 38.2594 263.734 38.6454 263.553 39.0401C263.406 39.3618 263.296 39.7021 263.182 40.0383C263.034 40.4753 262.893 40.9147 262.759 41.3567C262.678 41.6286 262.611 41.906 262.547 42.1829C262.455 42.5842 262.358 42.9851 262.286 43.3901C262.197 43.8839 262.129 44.3814 262.056 44.878C261.977 45.4082 261.901 45.9389 261.824 46.4695C261.813 46.5421 261.796 46.6142 261.792 46.6872C261.734 47.6863 261.682 48.6862 261.618 49.6849C261.599 49.9983 261.549 50.3101 261.513 50.6227C261.494 50.6264 261.475 50.6301 261.457 50.6339C261.45 50.5949 261.439 50.5559 261.436 50.517C261.398 50.0788 261.397 49.6364 261.347 49.1999C261.256 48.4002 261.145 47.6021 261.032 46.8049C260.951 46.2258 260.874 45.6437 260.755 45.0716C260.609 44.3735 260.422 43.6836 260.248 42.9917C260.244 42.9731 260.238 42.9548 260.233 42.9366C260.204 42.8222 260.175 42.7077 260.146 42.5933C260.067 42.2782 259.992 41.9615 259.891 41.6539C259.322 39.5454 258.526 38.0613 257.647 37.0161C257.613 36.9701 257.584 36.9195 257.548 36.8752C257.392 36.6807 257.204 36.512 257.012 36.3466C256.889 36.233 256.766 36.1265 256.642 36.0266C256.441 35.8458 256.244 35.6497 256.013 35.5183C255.719 35.3516 255.477 35.0963 255.111 35.0374C254.858 34.9968 254.621 34.8583 254.377 34.7638C254.361 34.758 254.345 34.7493 254.33 34.7489C253.676 34.7352 253.037 34.5034 252.375 34.6216C252.147 34.6622 251.916 34.695 251.689 34.7368C251.449 34.7795 251.31 34.8206 251.31 34.8206C250.938 34.9395 250.591 35.1336 250.232 35.2953C249.863 35.4619 249.541 35.6854 249.25 35.9441C248.926 36.2313 248.641 36.5618 248.373 36.9058C247.963 37.4332 247.646 38.0277 247.418 38.6649C247.189 39.3 247.017 39.9442 246.925 40.6146C246.911 40.7149 246.678 40.8152 246.53 40.8612C245.98 41.0308 245.41 41.1415 244.874 41.3446C244.438 41.5096 244.038 41.77 243.628 41.9984C243.03 42.333 242.483 42.7479 242.087 43.3055C241.782 43.7342 241.555 44.2209 241.318 44.6935C241.318 44.6935 241.306 44.723 241.287 44.7748C241.041 45.3054 240.967 45.8742 240.944 46.4451C240.928 46.6714 240.924 46.9131 240.936 47.166C240.943 47.4143 240.968 47.6622 241.019 47.9073C241.054 48.1067 241.104 48.3106 241.165 48.5167C241.165 48.5179 241.165 48.5196 241.166 48.5208C241.22 48.7032 241.284 48.8869 241.362 49.0722C241.422 49.2459 241.468 49.4262 241.534 49.5983C241.588 49.7376 241.656 49.8789 241.749 49.9942C242.081 50.4071 242.411 50.8237 242.772 51.2105C243.037 51.4941 243.336 51.7499 243.644 51.9849C243.877 52.1616 244.148 52.288 244.404 52.4319C244.674 52.5832 244.943 52.7366 245.22 52.8738C245.497 53.0114 245.783 53.1308 246.066 53.2568C246.27 53.3472 246.472 53.4397 246.679 53.5226C246.854 53.5931 247.032 53.6619 247.213 53.7133C247.479 53.7883 247.752 53.8406 248.018 53.9143C248.314 53.996 248.606 54.0905 248.9 54.1805C248.923 54.1871 248.943 54.2062 248.966 54.2095C249.361 54.2713 249.759 54.3202 250.151 54.3948C250.561 54.4732 250.966 54.5768 251.374 54.6664C251.445 54.6817 251.519 54.6805 251.592 54.6871C252.209 54.7427 252.842 54.7348 253.44 54.8749C253.888 54.9802 254.325 54.9495 254.766 54.9873C254.878 54.9968 254.989 55.008 255.101 55.0188C253.037 55.2534 251.097 55.5755 251.097 55.5755L251.113 55.6C250.764 55.6638 250.479 55.7277 250.306 55.7886C250.306 55.7886 246.398 56.6352 243.885 58.383C243.861 58.3975 243.835 58.4108 243.811 58.4257C243.787 58.4406 243.767 58.4634 243.743 58.4804C243.531 58.6346 243.328 58.7938 243.141 58.9617L243.112 58.9514C243.112 58.9514 240.636 60.9902 241.327 64.0941C241.338 64.1654 241.34 64.2367 241.356 64.3084C241.418 64.5866 241.468 64.8693 241.545 65.1417C241.586 65.3465 241.631 65.5492 241.703 65.7424C241.823 66.067 242.023 66.3622 242.191 66.669C242.494 67.2237 242.943 67.6598 243.427 68.0408C243.819 68.3496 244.272 68.5876 244.716 68.8235C245.057 69.0055 245.419 69.1572 245.786 69.2816C246.078 69.3802 246.391 69.4184 246.695 69.4814C246.961 69.5365 247.229 69.5813 247.491 69.6505C247.531 69.6613 247.566 69.7185 247.59 69.7753C247.612 69.8607 247.636 69.9557 247.667 70.0659C247.681 70.1236 247.699 70.1795 247.714 70.2372C247.809 70.6351 247.902 71.0348 248.029 71.4224C248.142 71.7677 248.366 72.0754 248.506 72.4136C248.668 72.8071 248.956 73.1076 249.182 73.4509C249.449 73.8559 249.785 74.1706 250.144 74.4562C250.469 74.7141 250.856 74.906 251.239 75.0739C251.65 75.2547 252.088 75.3753 252.516 75.5171C252.583 75.5395 252.66 75.5416 252.733 75.5403C253.418 75.5287 254.111 75.5772 254.783 75.4781C255.206 75.4159 255.658 75.3214 256.042 75.0544C256.379 74.8198 256.773 74.666 257.102 74.4226C257.392 74.2079 257.643 73.9322 257.881 73.6578C258.211 73.2764 258.542 72.8887 258.822 72.47C259.053 72.1234 259.216 71.7292 259.403 71.3532C259.549 71.0592 259.701 70.7666 259.824 70.4627C259.922 70.2214 259.979 69.9635 260.06 69.7152C260.106 69.5734 260.171 69.4375 260.218 69.2957C260.305 69.0279 260.389 68.7588 260.468 68.4881C260.546 68.217 260.623 67.9446 260.687 67.6689C260.76 67.3464 260.825 67.0209 260.883 66.6951C260.982 66.1354 261.073 65.5745 261.168 65.0144C261.181 64.9419 261.202 64.8702 261.218 64.798C261.248 64.7976 261.277 64.7976 261.306 64.7972C261.324 64.9332 261.355 65.0691 261.356 65.2051C261.367 66.1503 261.371 67.0956 261.378 68.0404C261.391 69.8516 261.496 71.6575 261.753 73.4505C261.862 74.2124 262.046 74.9645 262.203 75.7194C262.281 76.0934 262.365 76.4665 262.465 76.8346C262.547 77.1368 262.654 77.4328 262.758 77.7288C262.897 78.1243 263.035 78.5206 263.192 78.9095C263.333 79.2586 263.493 79.5994 263.653 79.9401C263.853 80.3655 264.056 80.7888 264.268 81.2083C264.36 81.3907 264.475 81.5623 264.582 81.7369C264.765 82.0349 264.945 82.3351 265.137 82.6278C265.137 82.6278 268.009 87.8974 272.843 90.7711L274.947 92.3635L279.322 95.3252C284.264 87.3335 289.092 79.5496 293.98 71.7342C298.248 64.9104 300.211 57.5058 299.982 49.0975Z" stroke="#4C4C4C" stroke-width="6.57534" mask="url(#path-2-inside-1_27_532)"/>
</svg>
